<?xml version="1.0" encoding="iso-8859-1"?>
<!-- Generator: Adobe Illustrator 19.0.0, SVG Export Plug-In . SVG Version: 6.00 Build 0)  -->
<svg version="1.1" id="Layer_1" xmlns="http://www.w3.org/2000/svg" xmlns:xlink="http://www.w3.org/1999/xlink" x="0px" y="0px"
	 viewBox="0 0 512 512" style="enable-background:new 0 0 512 512;" xml:space="preserve">
<circle style="fill:#88C5CC;" cx="256" cy="256" r="256"/>
<polygon style="fill:#CCCCCC;" points="412,216 100,216 256,108 "/>
<rect x="100" y="216" style="fill:#B3B3B3;" width="312" height="188"/>
<path style="fill:#FFFFFF;" d="M376,100c0-8.8-7.2-16-16-16H152c-8.8,0-16,7.2-16,16v204c0,8.8,7.2,16,16,16h208c8.8,0,16-7.2,16-16
	V100z"/>
<g>
	<polygon style="fill:#E6E6E6;" points="244,312 100,404 100,216 	"/>
	<polygon style="fill:#E6E6E6;" points="268,312 412,404 412,216 	"/>
</g>
<g>
	<polygon style="fill:#F5F5F5;" points="412,404 100,404 256,296 	"/>
	<rect x="168" y="112" style="fill:#F5F5F5;" width="176" height="132"/>
</g>
<rect x="176" y="120" style="fill:#C2E2F2;" width="160" height="116"/>
<polygon style="fill:#198058;" points="184,236 219.668,172.336 239.336,191.504 268.004,146.92 294.428,185.128 307.004,173.072 
	336,236 "/>
<circle style="fill:#FFE399;" cx="198.752" cy="140" r="16"/>
<g>
	<polygon style="fill:#F5F5F5;" points="239.336,191.004 257.252,172.584 262.252,176.084 266.584,166.5 271.916,180.832 
		276.752,168 294.428,185.004 268.004,146.672 	"/>
	<path style="fill:#F5F5F5;" d="M272,130.752c-0.972,0-1.908,0.148-2.812,0.368c-2.204-2.64-5.476-4.368-9.188-4.368
		c-6.624,0-12,5.38-12,12c-4.416,0-8,4.212-8,8.624c0,4.416,3.584,8.624,8,8.624h24c6.624,0,12-6,12-12.624
		S278.624,130.752,272,130.752z"/>
</g>
<g>
	<path style="fill:#E6E6E6;" d="M268.908,130.84c-2.2-2.472-5.336-4.088-8.908-4.088c-0.736,0-1.436,0.088-2.132,0.22
		c2.924,0.468,5.5,1.96,7.32,4.148c0.908-0.22,1.84-0.368,2.812-0.368C268.308,130.752,268.6,130.816,268.908,130.84z"/>
	<path style="fill:#E6E6E6;" d="M272,130.752c-0.6,0-1.168,0.132-1.744,0.232c5.544,1.056,9.744,6.544,9.744,12.4
		c0,6.62-5.376,12.62-12,12.62h4c6.624,0,12-6,12-12.62C284,136.756,278.624,130.752,272,130.752z"/>
</g>
<g>
</g>
<g>
</g>
<g>
</g>
<g>
</g>
<g>
</g>
<g>
</g>
<g>
</g>
<g>
</g>
<g>
</g>
<g>
</g>
<g>
</g>
<g>
</g>
<g>
</g>
<g>
</g>
<g>
</g>
</svg>
